<?xml version="1.0" encoding="UTF-8" standalone="no"?>
<!-- Generator: Adobe Illustrator 19.2.1, SVG Export Plug-In . SVG Version: 6.00 Build 0)  -->

<svg
   xmlns:dc="http://purl.org/dc/elements/1.1/"
   xmlns:cc="http://creativecommons.org/ns#"
   xmlns:rdf="http://www.w3.org/1999/02/22-rdf-syntax-ns#"
   xmlns:svg="http://www.w3.org/2000/svg"
   xmlns="http://www.w3.org/2000/svg"
   xmlns:sodipodi="http://sodipodi.sourceforge.net/DTD/sodipodi-0.dtd"
   xmlns:inkscape="http://www.inkscape.org/namespaces/inkscape"
   version="1.1"
   id="Layer_1"
   x="0px"
   y="0px"
   viewBox="0 0 464.06995 329.48703"
   xml:space="preserve"
   inkscape:version="0.91 r13725"
   sodipodi:docname="Homepage---hand-lamina.svg"
   width="464.06995"
   height="329.48703"><metadata
     id="metadata25"><rdf:RDF><cc:Work
         rdf:about=""><dc:format>image/svg+xml</dc:format><dc:type
           rdf:resource="http://purl.org/dc/dcmitype/StillImage" /><dc:title></dc:title></cc:Work></rdf:RDF></metadata><defs
     id="defs23" /><sodipodi:namedview
     pagecolor="#ffffff"
     bordercolor="#666666"
     borderopacity="1"
     objecttolerance="10"
     gridtolerance="10"
     guidetolerance="10"
     inkscape:pageopacity="0"
     inkscape:pageshadow="2"
     inkscape:window-width="1916"
     inkscape:window-height="941"
     id="namedview21"
     showgrid="false"
     fit-margin-top="0"
     fit-margin-left="0"
     fit-margin-right="0"
     fit-margin-bottom="0"
     inkscape:zoom="1.7155556"
     inkscape:cx="233.32642"
     inkscape:cy="167.24352"
     inkscape:window-x="0"
     inkscape:window-y="0"
     inkscape:window-maximized="0"
     inkscape:current-layer="Layer_1" /><style
     type="text/css"
     id="style3">
	.st0{fill:#F7F7F7;}
</style><g
     id="g5"
     transform="translate(5.8264249,-62.756477)"><path
       d="m 126.6,1331.6 c 25.8,0.5 50.3,2.7 72.7,6.3 23.4,3.7 45.2,9 64.2,15.7 20.3,7.1 37.9,16 51.3,26.3 14.5,11.1 24.3,24.2 26.9,38.7 2.9,16 -2.9,32.3 -17,48 -15.3,17 -39.8,32.8 -72.3,46.1 -34.3,14.1 -76,25 -122.2,31.2 -46.9,6.3 -96.2,7.6 -143.6,2.8 -45.8,-4.7 -83.5,-14.4 -111.7,-27.2 -26.3,-12 -43.7,-26.4 -52.4,-41.8 -8,-14.1 -8.5,-28.9 -2.1,-43.5 5.9,-13.4 17.7,-26.5 35,-38.9 16.2,-11.5 35.7,-21.5 57.2,-29.8 20.3,-7.9 42.8,-14.5 66.2,-19.7 22.7,-5 46.8,-8.8 71.5,-11.2 24.6,-2.4 50.2,-3.5 76.3,-3 z m 19.1,187.2 c 29.9,-5.2 56.3,-12.6 78.7,-21.2 21.6,-8.3 39.2,-17.8 52.7,-27.6 12.8,-9.4 21.7,-19 26.9,-28.3 4.9,-8.9 6.3,-17.4 4.5,-25.3 -4.8,0.5 -8.8,1.3 -12.3,2.3 -3.5,1 -6.5,2.2 -9.2,3.5 -2.7,1.3 -5,2.8 -7.3,4.4 -2.2,1.6 -4.4,3.2 -6.6,4.8 -3.8,-0.5 -6.6,-1.1 -8.7,-1.9 -2.1,-0.8 -3.4,-1.7 -4.3,-2.6 -0.9,-1 -1.3,-2 -1.6,-3 -0.3,-1 -0.4,-2.1 -0.6,-3.1 -0.3,-1.5 -1.6,-3.1 -3.5,-4.8 -1.9,-1.6 -4.4,-3.3 -7.3,-4.7 -2.8,-1.5 -6,-2.7 -9.2,-3.7 -3.2,-0.9 -6.4,-1.6 -9.4,-1.7 -0.3,0 -0.5,0 -0.7,0 -0.2,0 -0.4,0 -0.6,0 -0.2,0 -0.4,0 -0.6,0 -0.2,0 -0.3,0 -0.5,0 -2.9,-0.1 -5.6,-0.3 -8.2,-0.6 -2.6,-0.3 -5,-0.7 -7.3,-1.1 -2.3,-0.5 -4.4,-1 -6.3,-1.7 -1.9,-0.7 -3.7,-1.5 -5.4,-2.4 0.6,0.8 1.1,1.6 1.7,2.4 0.6,0.8 1.2,1.6 2.1,2.3 0.9,0.7 2.1,1.3 3.7,1.8 1.6,0.5 3.7,0.8 6.4,0.9 0.3,0 0.5,0 0.8,0 0.3,0 0.5,0 0.8,0 0.3,0 0.6,0 0.8,0 0.3,0 0.6,0 0.9,0 1,0 2.1,0.2 3.1,0.4 1,0.2 2.1,0.5 3.1,0.8 1,0.3 2,0.7 2.9,1.1 0.9,0.4 1.7,0.7 2.5,1.1 1,0.5 1.7,0.9 2,1.3 0.3,0.4 0.4,0.8 0.1,1.2 -0.3,0.4 -0.9,0.7 -1.8,1 -0.9,0.3 -2,0.6 -3.4,0.8 -2.7,0.4 -5.4,0.9 -8.1,1.3 -2.7,0.4 -5.4,0.9 -8.1,1.4 -2.7,0.5 -5.4,0.9 -8.1,1.4 -2.7,0.5 -5.5,0.9 -8.2,1.3 -1.5,0.2 -2.8,0.4 -4,0.6 -1.2,0.2 -2.3,0.3 -3.3,0.4 -1,0.1 -1.9,0.2 -2.7,0.2 -0.8,0 -1.5,0.1 -2.2,0 -0.9,0 -1.7,-0.2 -2.5,-0.4 -0.7,-0.2 -1.3,-0.6 -1.9,-1 -0.6,-0.4 -1.1,-1 -1.7,-1.6 -0.6,-0.6 -1.1,-1.4 -1.8,-2.3 -0.5,-0.6 -0.9,-1.3 -1.3,-1.9 -0.4,-0.6 -0.8,-1.3 -1.2,-1.9 -0.4,-0.6 -0.8,-1.3 -1.2,-1.9 -0.4,-0.6 -0.9,-1.2 -1.4,-1.8 -0.5,-0.6 -1.1,-1.3 -1.8,-1.9 -0.6,-0.6 -1.3,-1.2 -1.9,-1.9 -0.7,-0.6 -1.3,-1.2 -2,-1.8 -0.7,-0.6 -1.3,-1.2 -1.9,-1.8 -1.4,2 -1.2,4 -0.4,5.9 0.9,2 2.5,3.9 3.9,6 1.4,2.1 2.7,4.2 2.8,6.4 0.1,2.3 -1,4.7 -4.3,7.4 3.5,-0.3 6.8,-0.6 10,-0.8 3.2,-0.3 6.1,-0.5 9,-0.8 2.9,-0.2 5.7,-0.5 8.4,-0.7 2.8,-0.2 5.5,-0.5 8.2,-0.7 -0.9,2.3 -2.6,4.3 -4.9,6.1 -2.3,1.9 -5.2,3.6 -8.5,5.1 -3.3,1.6 -7.1,3 -11.2,4.4 -4.1,1.4 -8.4,2.7 -12.9,4 -1.1,0.3 -2.1,0.7 -3.1,1.2 -1,0.5 -2,1.1 -2.8,1.7 -0.8,0.6 -1.5,1.2 -1.9,1.8 -0.4,0.6 -0.7,1.2 -0.6,1.7 0.3,1.9 0,3.6 -0.8,5.1 -0.8,1.6 -2.1,3.1 -3.9,4.4 -1.8,1.4 -4,2.6 -6.6,3.9 -2.6,1.2 -5.7,2.4 -9,3.5 -3.2,1.1 -6.3,2.2 -9.4,3.3 -3.1,1.1 -6.2,2.3 -9.3,3.5 -3.1,1.2 -6.2,2.4 -9.3,3.7 -3.1,1.2 -6.3,2.5 -9.4,3.8 -1.5,0.6 -3.5,1.1 -5.8,1.6 -2.3,0.4 -4.8,0.8 -7.5,1.1 -2.7,0.3 -5.4,0.4 -8.1,0.5 -2.7,0.1 -5.2,0 -7.5,-0.2 -1,-0.1 -2,-0.2 -2.8,-0.3 -0.9,-0.1 -1.7,-0.3 -2.4,-0.5 -0.7,-0.2 -1.3,-0.4 -1.8,-0.6 -0.5,-0.2 -0.9,-0.5 -1.2,-0.8 -1,-1 -1.9,-2.1 -2.8,-3.1 -0.9,-1 -1.7,-2.1 -2.4,-3.1 -0.7,-1.1 -1.4,-2.1 -2.1,-3.2 -0.6,-1.1 -1.2,-2.1 -1.8,-3.2 -0.8,-1.6 -1.3,-3.1 -1.5,-4.6 -0.2,-1.5 0,-3 0.6,-4.4 0.6,-1.4 1.7,-2.9 3.3,-4.3 1.6,-1.4 3.7,-2.8 6.4,-4.1 0.7,-0.3 1.3,-0.8 1.8,-1.2 0.5,-0.5 0.9,-1 1.2,-1.5 0.3,-0.5 0.5,-1 0.6,-1.5 0.1,-0.5 0.1,-1 0.1,-1.4 -0.2,-1 -0.4,-2 -0.8,-3 -0.3,-1 -0.7,-1.9 -1.1,-2.9 -0.4,-0.9 -0.8,-1.9 -1.2,-2.8 -0.4,-0.9 -0.7,-1.9 -0.9,-2.8 -0.4,-1.3 -0.9,-2.4 -1.6,-3.4 -0.7,-1 -1.7,-1.8 -2.9,-2.5 -1.2,-0.7 -2.6,-1.2 -4.3,-1.6 -1.7,-0.4 -3.6,-0.6 -5.8,-0.8 -0.8,0 -1.7,-0.1 -2.6,-0.1 -0.9,0 -1.9,0 -2.9,0 -1,0 -2,0.1 -3.1,0.1 -1.1,0.1 -2.2,0.1 -3.4,0.2 -1.2,0.1 -2.4,0.2 -3.6,0.2 -1.2,0 -2.4,0.1 -3.7,0.1 -1.2,0 -2.4,0 -3.6,-0.1 -1.2,0 -2.4,-0.1 -3.5,-0.2 -0.1,0 -0.3,0 -0.4,0 -0.1,0 -0.3,0 -0.4,0 -0.1,0 -0.3,0 -0.4,0 -0.1,0 -0.3,0 -0.4,0 -3.5,-0.2 -6.3,-0.8 -8.7,-1.5 -2.3,-0.7 -4.2,-1.6 -5.7,-2.6 -1.6,-1 -2.9,-2.1 -4.3,-3.1 -1.3,-1 -2.6,-2.1 -4.2,-3 -1.5,-0.9 -1.6,-2.7 -0.5,-4.8 1,-2.1 3,-4.6 5.5,-7 2.5,-2.4 5.4,-4.7 8.4,-6.6 2.9,-1.9 5.9,-3.4 8.6,-4.1 1.6,-0.4 3.2,-0.9 4.8,-1.3 1.6,-0.4 3.1,-0.9 4.7,-1.3 1.6,-0.4 3.1,-0.9 4.6,-1.3 1.5,-0.4 3.1,-0.9 4.6,-1.3 0.6,-0.2 1.2,-0.3 1.8,-0.5 0.6,-0.2 1.3,-0.4 1.9,-0.5 0.6,-0.2 1.3,-0.3 1.9,-0.4 0.6,-0.1 1.3,-0.2 1.9,-0.2 3.3,-0.2 6.6,-0.4 9.8,-0.6 3.3,-0.2 6.6,-0.3 9.8,-0.5 3.3,-0.2 6.6,-0.3 9.8,-0.5 3.3,-0.2 6.6,-0.3 9.9,-0.5 0.4,0 0.9,0 1.3,0 0.4,0 0.8,0 1.2,0 0.4,0 0.8,0 1.1,0 0.4,0 0.7,0 1.1,0 1.3,0.1 2.4,0.2 3.3,0.3 0.9,0.2 1.7,0.4 2.3,0.8 0.6,0.3 1,0.7 1.1,1.2 0.2,0.5 0.1,1.1 -0.1,1.8 -0.2,0.6 -0.2,1.1 0,1.6 0.2,0.4 0.7,0.8 1.3,1.1 0.6,0.3 1.5,0.5 2.5,0.7 1,0.2 2.3,0.3 3.7,0.4 0.2,0 0.5,0 0.7,0 0.2,0 0.5,0 0.7,0 0.2,0 0.5,0 0.7,0 0.3,0 0.5,0 0.8,0 2.1,0 4.2,0 6.3,0 2.1,0 4.2,0.1 6.3,0.1 2.1,0 4.2,0.1 6.3,0.2 2.1,0.1 4.2,0.1 6.3,0.2 0.5,0 0.9,0 1.4,0 0.5,0 0.9,0 1.4,0.1 0.5,0 0.9,0 1.4,0.1 0.5,0 0.9,0 1.4,0.1 0.4,0 0.7,0 1.1,0 0.4,0 0.7,0 1.1,0 0.4,0 0.7,0 1.1,0 0.4,0 0.7,0 1.1,0 0.4,0 0.7,0 1.1,0.1 0.4,0 0.7,0 1.1,0.1 0.4,0 0.7,0 1.1,0 0.4,0 0.7,0 1.1,0 0.8,0 1.6,0.1 2.3,0.1 0.8,0 1.6,0.1 2.3,0.1 0.8,0 1.6,0 2.4,0.1 0.8,0 1.6,0 2.4,0 2.7,0 4.7,0 6.2,0 1.5,-0.1 2.6,-0.3 3.2,-0.6 0.7,-0.3 0.9,-0.7 1,-1.4 0,-0.6 -0.2,-1.4 -0.6,-2.5 -5.6,-0.5 -9.9,-0.8 -13,-1.2 -3.1,-0.4 -5.1,-0.7 -6.4,-1.2 -1.2,-0.5 -1.6,-1.1 -1.5,-1.8 0.1,-0.8 0.7,-1.8 1.5,-3.1 0.8,0 1.6,0 2.4,0 0.8,0 1.6,0 2.4,0 0.8,0 1.6,0 2.4,0 0.8,0 1.6,0 2.4,0 2,0.1 3.9,0.2 5.8,0.3 1.9,0.1 3.8,0.2 5.7,0.3 1.9,0.1 3.8,0.2 5.6,0.3 1.9,0.1 3.8,0.2 5.6,0.3 1.7,0.1 3,0 4,-0.1 1,-0.1 1.7,-0.3 2.1,-0.6 0.4,-0.3 0.6,-0.6 0.5,-1 -0.1,-0.4 -0.4,-0.8 -0.8,-1.3 -0.5,-0.5 -1.7,-1.1 -3.4,-1.6 -1.6,-0.5 -3.7,-1 -6,-1.5 -2.3,-0.5 -4.7,-0.9 -7,-1.2 -2.3,-0.3 -4.6,-0.5 -6.6,-0.6 -0.1,0 -0.3,0 -0.4,0 -0.1,0 -0.3,0 -0.4,0 -0.1,0 -0.3,0 -0.4,0 -0.1,0 -0.3,0 -0.4,0 -2.5,0 -4.3,0.2 -5.7,0.5 -1.4,0.3 -2.4,0.7 -3.2,1.2 -0.8,0.5 -1.4,1 -2,1.6 -0.6,0.6 -1.1,1.1 -1.9,1.6 -0.9,0.2 -1.7,0.4 -2.5,0.7 -0.8,0.2 -1.6,0.5 -2.4,0.7 -0.8,0.3 -1.6,0.5 -2.4,0.7 -0.8,0.2 -1.6,0.5 -2.5,0.7 -0.7,0.2 -1.5,0.3 -2.3,0.5 -0.8,0.1 -1.6,0.3 -2.4,0.4 -0.8,0.1 -1.7,0.2 -2.5,0.4 -0.8,0.1 -1.7,0.2 -2.5,0.4 -0.2,-0.3 -0.5,-0.5 -0.8,-0.8 -0.3,-0.3 -0.6,-0.5 -0.9,-0.8 -0.3,-0.3 -0.5,-0.5 -0.7,-0.8 -0.2,-0.3 -0.2,-0.5 -0.1,-0.8 0.3,-0.9 0.3,-1.8 -0.1,-2.5 -0.4,-0.7 -1.1,-1.4 -2.1,-1.9 -1,-0.5 -2.4,-1 -4.1,-1.3 -1.7,-0.3 -3.7,-0.5 -6,-0.6 -0.2,0 -0.3,0 -0.5,0 -0.2,0 -0.3,0 -0.5,0 -0.2,0 -0.3,0 -0.5,0 -0.2,0 -0.3,0 -0.5,0 0.7,0.5 1.4,1.1 2.1,1.6 0.7,0.5 1.4,1.1 2.1,1.6 0.7,0.5 1.4,1.1 2.1,1.6 0.7,0.5 1.4,1.1 2.1,1.6 -1.4,0.2 -2.6,0.4 -3.8,0.6 -1.2,0.2 -2.3,0.4 -3.5,0.5 -1.1,0.2 -2.2,0.3 -3.3,0.5 -1.1,0.2 -2.2,0.3 -3.3,0.5 0,-0.4 0.1,-0.7 0.2,-1.1 0.1,-0.4 0.2,-0.7 0.3,-1 0.1,-0.3 0.1,-0.6 0.1,-0.9 -0.1,-0.3 -0.2,-0.5 -0.6,-0.8 -0.6,-0.4 -1.3,-0.9 -2,-1.4 -0.7,-0.5 -1.5,-1 -2.3,-1.4 -0.8,-0.4 -1.6,-0.8 -2.5,-1.1 -0.9,-0.3 -1.7,-0.5 -2.6,-0.5 -2.4,0 -4.8,0.1 -7.2,0.2 -2.4,0.1 -4.8,0.3 -7.1,0.5 -2.3,0.3 -4.5,0.7 -6.6,1.3 -2.1,0.6 -4,1.4 -5.8,2.4 -0.8,0.5 -1.9,0.9 -3.3,1.2 -1.3,0.4 -2.9,0.6 -4.6,0.9 -1.7,0.2 -3.4,0.4 -5.2,0.5 -1.8,0.1 -3.5,0.1 -5.1,0 -0.6,0 -1.2,-0.1 -1.7,-0.1 -0.6,0 -1.1,-0.1 -1.6,-0.2 -0.5,-0.1 -1,-0.1 -1.4,-0.2 -0.4,-0.1 -0.9,-0.2 -1.2,-0.3 -0.3,-0.1 -0.5,-0.2 -0.7,-0.3 -0.2,-0.1 -0.4,-0.3 -0.6,-0.4 -0.1,-0.1 -0.2,-0.3 -0.3,-0.4 0,-0.1 0,-0.3 0.1,-0.4 0.3,-0.5 0.7,-1 1.1,-1.5 0.4,-0.5 0.8,-1 1.2,-1.5 0.4,-0.5 0.8,-1 1.2,-1.4 0.4,-0.5 0.8,-0.9 1.2,-1.4 0.8,0 1.6,0.1 2.4,0.1 0.8,0 1.5,0.1 2.2,0.1 0.7,0 1.4,0.1 2.1,0.1 0.7,0 1.3,0.1 1.9,0.1 0.4,0 0.9,0 1.3,0 0.4,0 0.9,0 1.3,0 0.4,0 0.8,0 1.3,0 0.4,0 0.8,0 1.3,0 0.6,0 1.1,-0.1 1.7,-0.2 0.6,-0.1 1.2,-0.2 1.8,-0.3 0.6,-0.1 1.2,-0.3 1.8,-0.4 0.6,-0.1 1.2,-0.3 1.8,-0.4 -0.2,-0.2 -0.5,-0.4 -0.7,-0.6 -0.2,-0.2 -0.4,-0.4 -0.7,-0.6 -0.2,-0.2 -0.5,-0.4 -0.8,-0.6 -0.3,-0.2 -0.6,-0.4 -0.9,-0.5 -0.3,-0.2 -0.7,-0.3 -1.2,-0.4 -0.4,-0.1 -0.8,-0.3 -1.3,-0.4 -0.4,-0.1 -0.9,-0.2 -1.2,-0.3 -0.4,-0.1 -0.8,-0.2 -1.1,-0.3 2.7,-0.4 5.3,-0.7 7.9,-1.1 2.6,-0.4 5.1,-0.7 7.7,-1.1 2.5,-0.4 5,-0.7 7.5,-1 2.5,-0.3 5,-0.6 7.4,-0.8 1.5,-0.1 2.8,-0.3 3.9,-0.5 1.1,-0.2 2.1,-0.4 2.9,-0.6 0.8,-0.3 1.4,-0.5 1.9,-0.9 0.5,-0.4 0.9,-0.8 1.1,-1.3 0.1,-0.2 0.4,-0.4 0.7,-0.7 0.4,-0.2 0.8,-0.4 1.3,-0.6 0.5,-0.2 1,-0.4 1.5,-0.6 0.5,-0.2 1,-0.4 1.3,-0.6 0.9,0.3 1.7,0.7 2.5,1 0.8,0.3 1.5,0.7 2.1,1 0.7,0.3 1.4,0.6 2.1,0.8 0.7,0.2 1.5,0.3 2.3,0.4 0.7,0 1.4,0.1 2.2,0.1 0.7,0.1 1.5,0.1 2.2,0.2 0.7,0.1 1.5,0.1 2.3,0.1 0.8,0 1.5,0.1 2.3,0.1 1.2,0 2.4,0 3.6,0 1.2,-0.1 2.3,-0.2 3.5,-0.3 1.1,-0.2 2.2,-0.5 3.2,-0.8 1,-0.4 2,-0.8 2.8,-1.4 0.2,-0.1 0.5,-0.2 0.9,-0.3 0.4,-0.1 0.9,-0.2 1.4,-0.2 0.5,-0.1 1.1,-0.1 1.6,-0.2 0.5,-0.1 1,-0.2 1.4,-0.3 0.5,-0.1 1,-0.3 1.5,-0.4 0.5,-0.1 1,-0.3 1.5,-0.5 0.5,-0.2 1,-0.3 1.4,-0.5 0.5,-0.2 1,-0.3 1.4,-0.5 -0.8,-0.2 -1.7,-0.4 -2.5,-0.6 -0.8,-0.2 -1.7,-0.4 -2.5,-0.6 -0.8,-0.2 -1.7,-0.4 -2.5,-0.6 -0.9,-0.2 -1.7,-0.3 -2.7,-0.5 -0.2,0 -0.6,0.1 -1,0.2 -0.4,0.1 -1,0.2 -1.5,0.4 -0.5,0.2 -1,0.3 -1.5,0.5 -0.4,0.2 -0.8,0.4 -0.9,0.5 -0.5,0.5 -1,0.9 -1.7,1.4 -0.7,0.4 -1.4,0.8 -2.3,1.1 -0.9,0.3 -1.9,0.6 -3,0.7 -1.1,0.2 -2.4,0.2 -3.9,0.2 -1,-0.1 -1.9,-0.2 -2.7,-0.4 -0.8,-0.2 -1.5,-0.5 -2.2,-0.7 -0.7,-0.3 -1.3,-0.6 -2,-0.9 -0.7,-0.3 -1.3,-0.6 -2,-0.9 -0.5,0 -1.1,0 -1.8,0.1 -0.7,0 -1.4,0.1 -2.2,0.1 -0.8,0 -1.6,0.1 -2.4,0.1 -0.8,0 -1.7,0 -2.5,0 -0.1,0 -0.3,0 -0.4,0 -0.1,0 -0.3,0 -0.4,0 -0.1,0 -0.3,0 -0.4,0 -0.1,0 -0.3,0 -0.4,0 -1.2,-0.1 -2.2,-0.3 -3,-0.5 -0.7,-0.2 -1.2,-0.5 -1.4,-0.7 -0.2,-0.3 -0.1,-0.6 0.3,-0.9 0.4,-0.3 1.2,-0.7 2.3,-1 1.4,-0.4 2.8,-0.8 4.2,-1.2 1.4,-0.4 2.9,-0.7 4.4,-1.1 1.5,-0.3 3,-0.7 4.5,-1 1.5,-0.3 3,-0.7 4.5,-1 2.5,-0.5 5,-1.1 7.6,-1.6 2.5,-0.5 5.1,-1 7.6,-1.6 2.5,-0.5 5,-1 7.4,-1.6 2.4,-0.5 4.8,-1.1 7.1,-1.7 1.9,-0.5 3.7,-0.9 5.6,-1.3 1.9,-0.4 3.8,-0.7 5.7,-1 1.9,-0.3 3.9,-0.4 6,-0.6 2.1,-0.1 4.2,-0.1 6.5,-0.1 0.5,0 1,0 1.4,0 0.4,0 0.8,0 1.1,0 0.3,0 0.7,0 1,0 0.3,0 0.6,0 0.9,0 0.5,0 1,0 1.6,0 0.5,0 1.1,0 1.7,0 0.6,0 1.2,0 1.8,0 0.6,0 1.3,0 1.9,0 -4.2,-0.7 -8.5,-1.2 -13,-1.8 -4.4,-0.5 -9,-0.9 -13.6,-1.3 -4.6,-0.4 -9.3,-0.7 -14,-0.9 -4.7,-0.2 -9.5,-0.4 -14.4,-0.5 -9.8,-0.2 -19.8,-0.2 -29.8,0.1 -10,0.3 -20,0.8 -29.8,1.6 -9.8,0.8 -19.6,1.8 -28.9,3.1 -9.4,1.3 -18.5,2.9 -27.1,4.7 1.7,0.5 2.9,1.2 3.7,1.8 0.8,0.7 1.2,1.4 1.2,2.2 0,0.8 -0.5,1.5 -1.5,2.3 -1,0.7 -2.4,1.5 -4.4,2.1 -2.5,0.8 -5,1.6 -7.6,2.5 -2.6,0.8 -5.2,1.6 -7.9,2.4 -2.7,0.8 -5.4,1.6 -8.1,2.4 -2.7,0.8 -5.5,1.6 -8.3,2.5 -0.5,0.1 -1,0.3 -1.6,0.4 -0.6,0.1 -1.3,0.2 -1.9,0.3 -0.7,0.1 -1.3,0.2 -1.9,0.2 -0.6,0 -1.2,0.1 -1.6,0.1 -0.5,-0.1 -1,-0.2 -1.3,-0.4 -0.3,-0.2 -0.5,-0.4 -0.7,-0.6 -0.1,-0.2 -0.2,-0.5 -0.1,-0.7 0,-0.2 0.2,-0.5 0.3,-0.7 0.5,-0.5 1,-1.1 1.6,-1.6 0.6,-0.5 1.2,-1 1.8,-1.6 0.6,-0.5 1.3,-1.1 1.9,-1.6 0.6,-0.5 1.3,-1.1 1.9,-1.6 -6,0.8 -11,1.7 -15.2,2.6 -4.2,1 -7.5,2.1 -10.1,3.3 -2.6,1.2 -4.3,2.6 -5.3,4.1 -1,1.5 -1.2,3.3 -0.7,5.2 0.1,0.4 0.2,0.7 0.2,1.1 0,0.4 0,0.8 0,1.2 0,0.4 0,0.8 -0.1,1.2 0,0.4 -0.1,0.8 -0.1,1.2 0,0.5 -0.3,1 -0.7,1.4 -0.4,0.4 -1,0.8 -1.8,1.1 -0.8,0.3 -1.8,0.6 -3,0.9 -1.2,0.3 -2.6,0.5 -4.2,0.7 -2.9,0.4 -5.8,0.9 -8.8,1.3 -2.9,0.5 -5.9,0.9 -8.8,1.4 -2.9,0.5 -5.9,1 -8.8,1.5 -2.9,0.5 -5.9,1.1 -8.8,1.6 -0.9,0.2 -1.9,0.4 -2.8,0.7 -1,0.3 -1.9,0.6 -2.8,0.9 -0.9,0.3 -1.7,0.7 -2.5,1.1 -0.7,0.4 -1.3,0.7 -1.8,1.1 -1.8,1.4 -3.7,2.8 -5.5,4.2 -1.9,1.4 -3.7,2.9 -5.5,4.4 -1.8,1.5 -3.6,3 -5.2,4.5 -1.7,1.5 -3.3,3.1 -4.8,4.6 -0.7,0.7 -1.2,1.4 -1.5,2.2 -0.4,0.8 -0.6,1.6 -0.6,2.3 0,0.8 0.2,1.5 0.6,2.1 0.4,0.6 1.1,1.1 2.1,1.5 3.2,1.1 5.7,2.4 7.7,3.7 2,1.4 3.5,2.9 4.4,4.5 0.9,1.7 1.3,3.5 1.2,5.4 -0.1,2 -0.7,4.1 -1.7,6.4 -0.2,0.5 -0.2,1 0,1.4 0.2,0.5 0.6,0.9 1.1,1.4 0.5,0.5 1.1,0.9 1.8,1.3 0.7,0.4 1.4,0.8 2.1,1.1 1.4,0.7 2.9,1.3 4.4,2 1.6,0.6 3.2,1.3 4.8,1.9 1.6,0.6 3.2,1.3 4.8,1.9 1.6,0.7 3.1,1.4 4.5,2.1 0.4,0.2 0.7,0.5 0.8,0.9 0.1,0.4 0.1,0.9 0,1.4 -0.1,0.5 -0.4,1 -0.7,1.5 -0.4,0.5 -0.8,0.9 -1.4,1.2 -2.7,1.6 -5.5,3.2 -8.4,4.9 -2.9,1.6 -5.9,3.3 -8.9,5 -3.1,1.7 -6.2,3.4 -9.4,5.2 -3.2,1.8 -6.5,3.6 -9.8,5.4 4.6,5.6 11,11 19,16 8.2,5.2 18.2,9.9 29.7,14.2 11.8,4.4 25.2,8.2 39.9,11.3 15,3.2 31.4,5.7 48.8,7.3 11.2,1 22.8,1.7 34.6,2.1 11.9,0.3 24.1,0.3 36.5,-0.2 12.4,-0.5 24.9,-1.3 37.4,-2.7 13.1,-1.2 25.6,-2.9 37.9,-5 m 58.8,-141.1 c -1.2,0.3 -2.4,0.7 -3.5,1.1 -1.1,0.4 -2.2,0.8 -3.1,1.2 -0.9,0.4 -1.6,0.9 -2,1.4 -0.4,0.5 -0.5,1.1 -0.3,1.8 0.2,0.6 0.5,1.3 0.7,1.9 0.2,0.6 0.4,1.3 0.6,1.9 0.2,0.7 0.4,1.3 0.6,2 0.2,0.7 0.4,1.4 0.6,2.1 0.5,0 1,0.1 1.5,0.1 0.5,0 1,0.1 1.4,0.1 0.5,0 0.9,0.1 1.3,0.1 0.4,0 0.8,0 1.3,0.1 2.3,0.1 4.1,0.1 5.7,0 1.5,-0.1 2.6,-0.3 3.4,-0.7 0.8,-0.3 1.3,-0.8 1.5,-1.4 0.2,-0.6 0.1,-1.3 -0.2,-2.1 -0.3,-0.7 -0.5,-1.4 -0.8,-2.1 -0.3,-0.7 -0.5,-1.4 -0.8,-2.1 -0.3,-0.7 -0.6,-1.4 -0.9,-2 -0.3,-0.7 -0.7,-1.3 -1.1,-2 -0.1,-0.1 -0.4,-0.3 -0.8,-0.4 -0.4,-0.2 -1,-0.3 -1.6,-0.4 -0.6,-0.1 -1.2,-0.3 -1.7,-0.3 -0.5,-0.1 -1,-0.1 -1.3,-0.2 0,0 -0.1,0 -0.1,0 0,0 -0.1,0 -0.1,0 -0.3,-0.2 -0.3,-0.2 -0.3,-0.1 0,0 0,0 0,0"
       id="path7"
       inkscape:connector-curvature="0" /></g><g
     id="Office_4_"
     transform="translate(5.8264249,-62.756477)"><g
       id="g10"><path
         d="m 225.3,1032.1 c -64.7,0 -117.2,52.5 -117.2,117.2 0,18.6 4.3,36.2 12,51.8 l 1.2,2.4 104,201.2 103.1,-199.5 0.6,-1.2 c 8.6,-16.3 13.5,-35 13.5,-54.7 0,-64.7 -52.5,-117.2 -117.2,-117.2 z"
         id="path12"
         inkscape:connector-curvature="0" /></g></g><g
     id="Office_5_"
     transform="translate(5.8264249,-62.756477)"><g
       id="g15"><path
         d="m -42.7,990.4 c -64.7,0 -117.2,52.5 -117.2,117.2 0,18.6 4.3,36.2 12,51.8 l 1.2,2.4 104,201.2 103.1,-199.5 0.6,-1.2 c 8.6,-16.3 13.5,-35 13.5,-54.7 0,-64.7 -52.5,-117.2 -117.2,-117.2 z"
         id="path17"
         inkscape:connector-curvature="0" /></g></g><path
     class="st0"
     d="M 0.5829016,0 0,329.48704 l 464.06994,0 0,-329.48704 z M 258.72642,315.44352 c -0.9,0.2 -1.8,0.4 -2.8,0.4 l -22.1,0 -1.3,0 c -2.3,-0.2 -4.2,-1.1 -4.9,-3.3 -1.2,-4 1.3,-6.9 4.8,-6.8 l 11.9,0 0,0 12.7,0 c 2.8,0 4.7,2.3 4.9,4 0.5,3 -1.1,5.2 -3.2,5.7 z m 13,-14.3 c -1.2,1 -2.5,1.4 -4,1.4 l -46,0 -0.9,0 c -2.7,-0.3 -4.8,-2.4 -4.8,-5.2 0,-2.7 2.4,-5 5.2,-5 l 23.1,0 0,0 23.6,0 c 1,0 2.2,0.2 3,0.8 2.7,1.8 3.6,5.5 0.8,8 z m -54.4,-20.7 c 1.2,-1.2 2.6,-1.8 4.4,-1.8 l 22.6,0 0,0 22.2,0 2,0 c 3.5,0.1 6.1,3.8 4.5,7.1 -0.6,1.3 -1.6,2.3 -3,2.7 -1,0.3 -2.1,0.3 -3.1,0.4 l -44.3,0 c -1,0 -2,-0.1 -2.9,-0.4 -3.2,-0.8 -5,-5.3 -2.4,-8 z m 235.9,-122.7 c -1.2,4.4 -3.5,8.2 -7.5,10.7 -2.7,1.7 -5.5,2.1 -8.6,1.5 -2.8,-0.6 -5.2,-2.1 -7.4,-3.9 -0.5,-0.4 -0.9,-0.7 -1.7,-1.4 0.4,1.2 0.6,1.9 0.8,2.6 1,3.2 1.4,6.5 0.6,9.8 -0.7,3.1 -2.1,6 -4.5,8.2 -4.3,3.9 -9.3,5.3 -15.1,4.1 -4,-0.9 -7.3,-3 -10.3,-5.7 -4.4,-4 -8.8,-8 -13.2,-12.1 -1.5,-1.4 -3,-2.8 -4.5,-4.1 -4,-3.6 -8,-7.2 -12,-10.7 -3.1,-2.8 -6.3,-5.6 -9.5,-8.3 -3.2,-2.7 -6.3,-5.3 -9.6,-7.9 -3.9,-3 -7.8,-5.9 -11.7,-8.9 -0.4,-0.3 -0.9,-0.5 -1.6,-1 0.2,0.6 0.2,0.8 0.3,1.1 2.1,5 3.8,10.1 5.1,15.3 0.8,3.5 1.4,7.1 2,10.6 0.6,3.5 0.9,6.9 1,10.4 0.1,4.6 -0.2,9.1 -1,13.6 -0.7,3.6 -1.3,7.2 -2.3,10.8 -1.4,4.9 -3.3,9.6 -5.6,14.2 -2.7,5.4 -5.6,10.7 -9,15.6 -3.6,5.2 -7.3,10.3 -11,15.4 -2.9,4 -5.9,7.9 -8.7,11.9 -4.6,6.4 -8.7,13.1 -10.8,20.9 -0.1,0.2 -0.3,0.4 -0.4,0.5 -1.4,-0.2 -2.7,-0.3 -4,-0.6 -4.1,-0.9 -8,-1.9 -11.6,-4.3 -3.6,-2.4 -6.1,-5.6 -7.1,-9.8 -0.6,-2.6 -0.8,-5.2 -0.5,-8 0.5,-3.5 1.4,-7 2.6,-10.3 2.1,-5.6 5.4,-10.6 9,-15.4 3.8,-5.1 7.7,-10.1 11,-15.6 2.8,-4.5 5,-9.3 6.6,-14.3 1.8,-5.7 2.3,-11.5 2.5,-17.4 0.1,-1.6 -0.2,-3.1 -0.3,-4.7 -0.3,-2.4 -0.5,-4.9 -0.9,-7.3 -0.6,-3.4 -1.7,-6.7 -2.9,-9.9 -2.6,-7.1 -6.6,-13.4 -11.6,-19 -4.3,-4.8 -9.3,-8.7 -14.8,-11.9 -7.9,-4.6 -16.4,-7.1 -25.3,-7.9 -4.6,-0.4 -9.2,-0.3 -13.8,0.5 -5.1,0.9 -10,2.2 -14.8,4.2 -6,2.5 -11.4,5.9 -16.3,10.2 -7.7,6.8 -13.4,15.1 -17,24.8 -2.4,6.7 -3.5,13.5 -3.7,20.6 -0.1,2.9 0.3,5.8 0.6,8.7 0.4,3 0.9,6 1.8,8.9 2.1,6.9 5.4,13.2 9.5,19.1 3.1,4.5 6.4,8.8 9.6,13.2 3.7,5.1 6.8,10.5 8.6,16.6 1.4,4.7 2.3,9.4 1.5,14.3 -0.6,3.4 -1.7,6.7 -3.5,9.6 -2,3.2 -4.7,5.8 -7.7,8.1 -2.1,1.6 -4.4,2.8 -6.9,4 -0.3,-0.5 -0.7,-0.9 -0.9,-1.3 -5,-8.2 -10.4,-16.1 -16.5,-23.5 -3.5,-4.2 -7.2,-8.1 -11,-12.1 -2,-2.1 -4.1,-4 -6.2,-6 -4.2,-4.1 -8.6,-8.1 -12.4,-12.6 -2.7,-3.3 -5.2,-6.8 -7.3,-10.5 -4.5,-7.7 -6.9,-16.2 -8.1,-25 -0.6,-4.6 -1.2,-9.2 -1.7,-13.9 -0.5,-4.1 -1.3,-8 -2.9,-11.9 -1.5,-3.6 -3.6,-6.7 -6,-9.7 -2.3,-2.9 -5.5,-4.5 -8.8,-6 -5.7,-2.7 -11.7,-4.8 -17.799995,-6.3 -5.3,-1.4 -10.6,-2.7 -16,-3.9 -3.6,-0.8 -7.2,-1.5 -10.8,-2.2 -2.5,-0.5 -5,-0.8 -7.4,-1.1 -2.9,-0.4 -5.9,-0.8 -8.8,-1.2 -2.4,-0.3 -4.8,-0.7 -7.3,-0.9 -3.3,-0.3 -6.6,-0.6 -9.9,-0.7 -3.2,-0.2 -6.4,-0.3 -9.6,-0.3 -2,0 -4,0.2 -5.9,0.2 -4.4,0 -8.7,0.4 -13.0000001,1.1 -0.3,0.1 -0.5,-0.1 -0.9,-0.1 l 0,-112.999997 c 0.4,0 0.7,-0.1 0.9,0 6.2000001,1.5 12.4000001,3 18.8000001,4 l 17.4,3 c 3.4,0.6 6.8,1 10.2,1.5 4,0.6 8.1,1.1 12.1,1.6 2.4,0.3 4.9,0.5 7.3,0.8 3.5,0.4 7,0.9 10.6,1.3 3.1,0.3 6.3,0.5 9.4,0.8 3.9,0.3 7.799995,0.7 11.699995,1 3.7,0.3 7.4,0.5 11.2,0.7 2.9,0.2 5.7,0.3 8.6,0.3 5.2,0.1 10.4,0.1 15.6,0.1 2.2,0 4.5,0.1 6.7,-0.1 3.7,-0.2 7.4,-0.5 11.1,-1 3.1,-0.3 6.3,-0.7 9.3,-1.4 4.3,-0.9 8.6,-2 12.9,-3.1 7.9,-2 15.7,-4 23.6,-6 2.9,-0.7 5.9,-1.5 8.8,-2.2 3.9,-0.9 7.9,-1.7 11.8,-2.4 2.8,-0.5 5.6,-1 8.4,-1.4 3.6,-0.5 7.2,-0.8 10.8,-1.2 3.5,-0.3 7.1,-0.8 10.6,-0.9 6.5,-0.2 13.1,-0.1 19.6,0.3 l 0.4,0 c 2.8,0.3 5.7,0.6 8.5,1 3.8,0.5 7.7,0.9 11.4,1.6 6.6,1.3 13.3,2.6 19.8,4.4 5.5,1.5 11,3.2 16.4,5.1 4.2,1.5 8.3,3.1 12.4,4.7 3.7,1.5 7.4,3.1 11.1,4.8 3.6,1.6 7,3.5 10.5,5.2 5.5,2.8 10.9,5.9 16.1,9.2 4.2,2.6 8.4,5.4 12.4,8.2 3.7,2.6 7.4,5.3 11,8.1 3.5,2.7 6.9,5.6 10.3,8.5 3.2,2.7 6.3,5.5 9.4,8.4 3.1,3 6,6.1 8.9,9.2 2.1,2.2 4.1,4.5 6.1,6.8 3.1,3.399997 4.6,7.399997 4.2,12.099997 -0.4,4.5 -2.4,7.9 -6.3,10.1 -2.1,1.2 -4.5,1.7 -7.2,1.3 l 8.1,8.1 9.9,9.9 c 1.6,1.6 2.7,3.6 3.4,5.7 1.7,4.2 1.8,8.8 0.6,13.2 z"
     id="path19"
     inkscape:connector-curvature="0"
     style="fill:#f7f7f7"
     sodipodi:nodetypes="ccccccsccccccscccsccssccscccscccccccsccsccccccccccccscccccscccsccccccsccccccccccccccsccccccccccccccccccccccccscccccsscccccccsccccccsccccccccccccccccccccccccccccccscs" /></svg>